<mxfile host="app.diagrams.net" modified="2024-07-09T09:26:30.940Z" agent="Mozilla/5.0 (Windows NT 10.0; Win64; x64) AppleWebKit/537.36 (KHTML, like Gecko) Chrome/126.0.0.0 Safari/537.36 Edg/126.0.0.0" etag="QP272NIya82X_FdNmUIG" version="24.6.4" type="github">
  <diagram name="Page-1" id="F4PiP-Tvc2kzaB-8Amb1">
    <mxGraphModel dx="1670" dy="948" grid="1" gridSize="10" guides="1" tooltips="1" connect="1" arrows="1" fold="1" page="1" pageScale="1" pageWidth="850" pageHeight="1100" math="0" shadow="0">
      <root>
        <mxCell id="0" />
        <mxCell id="1" parent="0" />
        <mxCell id="vWQNxFRxiga3JergTZAy-1" value="&lt;font style=&quot;font-size: 11px;&quot;&gt;&lt;span style=&quot;&quot; class=&quot;fontstyle0&quot;&gt;Xây dựng một ứng dụng app mobile đọc các thông tin của thẻ visa master có gắn chip&lt;/span&gt; &lt;/font&gt;&lt;div style=&quot;font-size: 11px;&quot;&gt;&lt;br&gt;&lt;/div&gt;" style="swimlane;whiteSpace=wrap;html=1;fillColor=#d5e8d4;strokeColor=#000000;" parent="1" vertex="1">
          <mxGeometry x="325" y="40" width="197.5" height="800" as="geometry" />
        </mxCell>
        <mxCell id="vWQNxFRxiga3JergTZAy-6" value="" style="ellipse;whiteSpace=wrap;html=1;fillColor=#dae8fc;strokeColor=#6c8ebf;" parent="vWQNxFRxiga3JergTZAy-1" vertex="1">
          <mxGeometry x="40" y="70" width="120" height="40" as="geometry" />
        </mxCell>
        <mxCell id="vWQNxFRxiga3JergTZAy-15" value="" style="ellipse;whiteSpace=wrap;html=1;fillColor=#dae8fc;strokeColor=#6c8ebf;" parent="vWQNxFRxiga3JergTZAy-1" vertex="1">
          <mxGeometry x="40" y="710" width="120" height="40" as="geometry" />
        </mxCell>
        <mxCell id="vWQNxFRxiga3JergTZAy-14" value="" style="ellipse;whiteSpace=wrap;html=1;fillColor=#dae8fc;strokeColor=#6c8ebf;" parent="vWQNxFRxiga3JergTZAy-1" vertex="1">
          <mxGeometry x="40" y="630" width="120" height="40" as="geometry" />
        </mxCell>
        <mxCell id="vWQNxFRxiga3JergTZAy-13" value="" style="ellipse;whiteSpace=wrap;html=1;fillColor=#dae8fc;strokeColor=#6c8ebf;" parent="vWQNxFRxiga3JergTZAy-1" vertex="1">
          <mxGeometry x="40" y="550" width="120" height="40" as="geometry" />
        </mxCell>
        <mxCell id="vWQNxFRxiga3JergTZAy-12" value="" style="ellipse;whiteSpace=wrap;html=1;fillColor=#dae8fc;strokeColor=#6c8ebf;" parent="vWQNxFRxiga3JergTZAy-1" vertex="1">
          <mxGeometry x="37.5" y="400" width="120" height="40" as="geometry" />
        </mxCell>
        <mxCell id="vWQNxFRxiga3JergTZAy-9" value="" style="ellipse;whiteSpace=wrap;html=1;fillColor=#dae8fc;strokeColor=#6c8ebf;" parent="vWQNxFRxiga3JergTZAy-1" vertex="1">
          <mxGeometry x="40" y="230" width="120" height="40" as="geometry" />
        </mxCell>
        <mxCell id="vWQNxFRxiga3JergTZAy-8" value="" style="ellipse;whiteSpace=wrap;html=1;fillColor=#dae8fc;strokeColor=#6c8ebf;" parent="vWQNxFRxiga3JergTZAy-1" vertex="1">
          <mxGeometry x="40" y="150" width="120" height="40" as="geometry" />
        </mxCell>
        <mxCell id="vWQNxFRxiga3JergTZAy-16" value="&lt;font style=&quot;font-size: 11px;&quot;&gt;Đăng nhập và quản lý&lt;/font&gt;" style="text;html=1;align=center;verticalAlign=middle;whiteSpace=wrap;rounded=0;" parent="vWQNxFRxiga3JergTZAy-1" vertex="1">
          <mxGeometry x="70" y="75" width="60" height="30" as="geometry" />
        </mxCell>
        <mxCell id="vWQNxFRxiga3JergTZAy-17" value="&lt;font style=&quot;font-size: 11px;&quot;&gt;Quét thẻ có gắn chip&lt;/font&gt;&lt;span style=&quot;font-family: monospace; font-size: 0px; text-align: start; text-wrap: nowrap;&quot;&gt;%3CmxGraphModel%3E%3Croot%3E%3CmxCell%20id%3D%220%22%2F%3E%3CmxCell%20id%3D%221%22%20parent%3D%220%22%2F%3E%3CmxCell%20id%3D%222%22%20value%3D%22%26lt%3Bfont%20color%3D%26quot%3B%23ffffff%26quot%3B%20style%3D%26quot%3Bfont-size%3A%2011px%3B%26quot%3B%26gt%3B%C4%90%C4%83ng%20nh%E1%BA%ADp%20v%C3%A0%20qu%E1%BA%A3n%20l%C3%BD%26lt%3B%2Ffont%26gt%3B%22%20style%3D%22text%3Bhtml%3D1%3Balign%3Dcenter%3BverticalAlign%3Dmiddle%3BwhiteSpace%3Dwrap%3Brounded%3D0%3B%22%20vertex%3D%221%22%20parent%3D%221%22%3E%3CmxGeometry%20x%3D%22395%22%20y%3D%22115%22%20width%3D%2260%22%20height%3D%2230%22%20as%3D%22geometry%22%2F%3E%3C%2FmxCell%3E%3C%2Froot%3E%3C%2FmxGraphModel%3E&lt;/span&gt;" style="text;html=1;align=center;verticalAlign=middle;whiteSpace=wrap;rounded=0;" parent="vWQNxFRxiga3JergTZAy-1" vertex="1">
          <mxGeometry x="67.5" y="155" width="60" height="30" as="geometry" />
        </mxCell>
        <mxCell id="vWQNxFRxiga3JergTZAy-18" value="&lt;font style=&quot;font-size: 11px;&quot;&gt;Quét thẻ qua đầu đọc&lt;/font&gt;&lt;span style=&quot;font-family: monospace; font-size: 0px; text-align: start; text-wrap: nowrap;&quot;&gt;%3CmxGraphModel%3E%3Croot%3E%3CmxCell%20id%3D%220%22%2F%3E%3CmxCell%20id%3D%221%22%20parent%3D%220%22%2F%3E%3CmxCell%20id%3D%222%22%20value%3D%22%26lt%3Bfont%20color%3D%26quot%3B%23ffffff%26quot%3B%20style%3D%26quot%3Bfont-size%3A%2011px%3B%26quot%3B%26gt%3B%C4%90%C4%83ng%20nh%E1%BA%ADp%20v%C3%A0%20qu%E1%BA%A3n%20l%C3%BD%26lt%3B%2Ffont%26gt%3B%22%20style%3D%22text%3Bhtml%3D1%3Balign%3Dcenter%3BverticalAlign%3Dmiddle%3BwhiteSpace%3Dwrap%3Brounded%3D0%3B%22%20vertex%3D%221%22%20parent%3D%221%22%3E%3CmxGeometry%20x%3D%22395%22%20y%3D%22115%22%20width%3D%2260%22%20height%3D%2230%22%20as%3D%22geometry%22%2F%3E%3C%2FmxCell%3E%3C%2Froot%3E%3C%2FmxGraphModel%3E&lt;/span&gt;" style="text;html=1;align=center;verticalAlign=middle;whiteSpace=wrap;rounded=0;" parent="vWQNxFRxiga3JergTZAy-1" vertex="1">
          <mxGeometry x="70" y="235" width="60" height="30" as="geometry" />
        </mxCell>
        <mxCell id="vWQNxFRxiga3JergTZAy-22" value="&lt;span style=&quot;font-size: 11px;&quot;&gt;Quản lý thẻ&lt;/span&gt;" style="text;html=1;align=center;verticalAlign=middle;whiteSpace=wrap;rounded=0;" parent="vWQNxFRxiga3JergTZAy-1" vertex="1">
          <mxGeometry x="65" y="405" width="60" height="30" as="geometry" />
        </mxCell>
        <mxCell id="vWQNxFRxiga3JergTZAy-23" value="&lt;span style=&quot;font-size: 11px;&quot;&gt;Giám sát và khắc phục sự cố&lt;/span&gt;" style="text;html=1;align=center;verticalAlign=middle;whiteSpace=wrap;rounded=0;" parent="vWQNxFRxiga3JergTZAy-1" vertex="1">
          <mxGeometry x="70" y="555" width="60" height="30" as="geometry" />
        </mxCell>
        <mxCell id="vWQNxFRxiga3JergTZAy-24" value="&lt;span style=&quot;font-size: 11px;&quot;&gt;quản lý người dùng&lt;/span&gt;" style="text;html=1;align=center;verticalAlign=middle;whiteSpace=wrap;rounded=0;" parent="vWQNxFRxiga3JergTZAy-1" vertex="1">
          <mxGeometry x="67.5" y="635" width="60" height="30" as="geometry" />
        </mxCell>
        <mxCell id="vWQNxFRxiga3JergTZAy-25" value="&lt;span style=&quot;font-size: 11px;&quot;&gt;bảo mật hệ thống&lt;/span&gt;" style="text;html=1;align=center;verticalAlign=middle;whiteSpace=wrap;rounded=0;" parent="vWQNxFRxiga3JergTZAy-1" vertex="1">
          <mxGeometry x="70" y="715" width="60" height="30" as="geometry" />
        </mxCell>
        <mxCell id="vWQNxFRxiga3JergTZAy-10" value="" style="ellipse;whiteSpace=wrap;html=1;fillColor=#dae8fc;strokeColor=#6c8ebf;" parent="vWQNxFRxiga3JergTZAy-1" vertex="1">
          <mxGeometry x="40" y="320" width="120" height="40" as="geometry" />
        </mxCell>
        <mxCell id="vWQNxFRxiga3JergTZAy-19" value="&lt;span style=&quot;font-size: 11px;&quot;&gt;Hiển thị thông tin thẻ&lt;/span&gt;" style="text;html=1;align=center;verticalAlign=middle;whiteSpace=wrap;rounded=0;" parent="vWQNxFRxiga3JergTZAy-1" vertex="1">
          <mxGeometry x="67.5" y="325" width="60" height="30" as="geometry" />
        </mxCell>
        <mxCell id="vWQNxFRxiga3JergTZAy-11" value="" style="ellipse;whiteSpace=wrap;html=1;fillColor=#dae8fc;strokeColor=#6c8ebf;" parent="vWQNxFRxiga3JergTZAy-1" vertex="1">
          <mxGeometry x="35" y="480" width="120" height="40" as="geometry" />
        </mxCell>
        <mxCell id="vWQNxFRxiga3JergTZAy-21" value="&lt;span style=&quot;font-size: 11px;&quot;&gt;Hổ trợ khách hàng&lt;/span&gt;" style="text;html=1;align=center;verticalAlign=middle;whiteSpace=wrap;rounded=0;" parent="vWQNxFRxiga3JergTZAy-1" vertex="1">
          <mxGeometry x="67.5" y="485" width="60" height="30" as="geometry" />
        </mxCell>
        <mxCell id="vWQNxFRxiga3JergTZAy-44" value="&lt;div style=&quot;font-size: 14px;&quot;&gt;&lt;span style=&quot;background-color: initial;&quot;&gt;&lt;font style=&quot;font-size: 14px;&quot;&gt;&lt;b style=&quot;&quot;&gt;Xây dựng một ứng dụng app mobile đọc các thông tin của thẻ visa master có gắn chip&lt;/b&gt;&lt;/font&gt;&lt;/span&gt;&lt;/div&gt;&lt;div style=&quot;font-size: 14px;&quot;&gt;&lt;br style=&quot;font-weight: 700;&quot;&gt;&lt;/div&gt;" style="rounded=0;whiteSpace=wrap;html=1;fillColor=#dae8fc;align=center;strokeColor=#000000;" parent="vWQNxFRxiga3JergTZAy-1" vertex="1">
          <mxGeometry y="-30" width="197.5" height="60" as="geometry" />
        </mxCell>
        <mxCell id="vWQNxFRxiga3JergTZAy-2" value="Người quản lý hệ thống" style="shape=umlActor;verticalLabelPosition=bottom;verticalAlign=top;html=1;outlineConnect=0;" parent="1" vertex="1">
          <mxGeometry x="110" y="420" width="90" height="130" as="geometry" />
        </mxCell>
        <mxCell id="vWQNxFRxiga3JergTZAy-4" value="Nhân viên hổ trợ kỹ thuật" style="shape=umlActor;verticalLabelPosition=bottom;verticalAlign=top;html=1;outlineConnect=0;" parent="1" vertex="1">
          <mxGeometry x="110" y="100" width="90" height="130" as="geometry" />
        </mxCell>
        <mxCell id="vWQNxFRxiga3JergTZAy-5" value="Người dùng" style="shape=umlActor;verticalLabelPosition=bottom;verticalAlign=top;html=1;outlineConnect=0;" parent="1" vertex="1">
          <mxGeometry x="670" y="230" width="90" height="130" as="geometry" />
        </mxCell>
        <mxCell id="B66K4Mg3-35a2zKml4Np-1" value="" style="endArrow=none;html=1;rounded=0;exitX=1;exitY=0.5;exitDx=0;exitDy=0;" edge="1" parent="1" source="vWQNxFRxiga3JergTZAy-6">
          <mxGeometry width="50" height="50" relative="1" as="geometry">
            <mxPoint x="580" y="350" as="sourcePoint" />
            <mxPoint x="640" y="280" as="targetPoint" />
          </mxGeometry>
        </mxCell>
        <mxCell id="B66K4Mg3-35a2zKml4Np-2" value="" style="endArrow=none;html=1;rounded=0;exitX=1;exitY=0.5;exitDx=0;exitDy=0;" edge="1" parent="1" source="vWQNxFRxiga3JergTZAy-8">
          <mxGeometry width="50" height="50" relative="1" as="geometry">
            <mxPoint x="580" y="350" as="sourcePoint" />
            <mxPoint x="640" y="280" as="targetPoint" />
          </mxGeometry>
        </mxCell>
        <mxCell id="B66K4Mg3-35a2zKml4Np-3" value="" style="endArrow=none;html=1;rounded=0;exitX=1;exitY=0.5;exitDx=0;exitDy=0;" edge="1" parent="1" source="vWQNxFRxiga3JergTZAy-9">
          <mxGeometry width="50" height="50" relative="1" as="geometry">
            <mxPoint x="590" y="330" as="sourcePoint" />
            <mxPoint x="640" y="280" as="targetPoint" />
          </mxGeometry>
        </mxCell>
        <mxCell id="B66K4Mg3-35a2zKml4Np-4" value="" style="endArrow=none;html=1;rounded=0;exitX=1;exitY=0.5;exitDx=0;exitDy=0;" edge="1" parent="1" source="vWQNxFRxiga3JergTZAy-10">
          <mxGeometry width="50" height="50" relative="1" as="geometry">
            <mxPoint x="590" y="330" as="sourcePoint" />
            <mxPoint x="640" y="280" as="targetPoint" />
          </mxGeometry>
        </mxCell>
        <mxCell id="B66K4Mg3-35a2zKml4Np-5" value="" style="endArrow=none;html=1;rounded=0;exitX=1;exitY=0.5;exitDx=0;exitDy=0;" edge="1" parent="1" source="vWQNxFRxiga3JergTZAy-12">
          <mxGeometry width="50" height="50" relative="1" as="geometry">
            <mxPoint x="590" y="330" as="sourcePoint" />
            <mxPoint x="640" y="280" as="targetPoint" />
          </mxGeometry>
        </mxCell>
        <mxCell id="B66K4Mg3-35a2zKml4Np-6" value="" style="endArrow=none;html=1;rounded=0;entryX=0;entryY=0.5;entryDx=0;entryDy=0;" edge="1" parent="1" target="vWQNxFRxiga3JergTZAy-6">
          <mxGeometry width="50" height="50" relative="1" as="geometry">
            <mxPoint x="210" y="190" as="sourcePoint" />
            <mxPoint x="710" y="340" as="targetPoint" />
          </mxGeometry>
        </mxCell>
        <mxCell id="B66K4Mg3-35a2zKml4Np-7" value="" style="endArrow=none;html=1;rounded=0;exitX=0;exitY=0.5;exitDx=0;exitDy=0;" edge="1" parent="1" source="vWQNxFRxiga3JergTZAy-12">
          <mxGeometry width="50" height="50" relative="1" as="geometry">
            <mxPoint x="440" y="370" as="sourcePoint" />
            <mxPoint x="210" y="190" as="targetPoint" />
          </mxGeometry>
        </mxCell>
        <mxCell id="B66K4Mg3-35a2zKml4Np-8" value="" style="endArrow=none;html=1;rounded=0;entryX=0.014;entryY=0.269;entryDx=0;entryDy=0;entryPerimeter=0;" edge="1" parent="1" target="vWQNxFRxiga3JergTZAy-11">
          <mxGeometry width="50" height="50" relative="1" as="geometry">
            <mxPoint x="210" y="190" as="sourcePoint" />
            <mxPoint x="600" y="290" as="targetPoint" />
          </mxGeometry>
        </mxCell>
        <mxCell id="B66K4Mg3-35a2zKml4Np-9" value="" style="endArrow=none;html=1;rounded=0;entryX=0;entryY=0.5;entryDx=0;entryDy=0;" edge="1" parent="1" target="vWQNxFRxiga3JergTZAy-13">
          <mxGeometry width="50" height="50" relative="1" as="geometry">
            <mxPoint x="210" y="190" as="sourcePoint" />
            <mxPoint x="600" y="290" as="targetPoint" />
          </mxGeometry>
        </mxCell>
        <mxCell id="B66K4Mg3-35a2zKml4Np-10" value="" style="endArrow=none;html=1;rounded=0;entryX=0;entryY=1;entryDx=0;entryDy=0;" edge="1" parent="1" target="vWQNxFRxiga3JergTZAy-6">
          <mxGeometry width="50" height="50" relative="1" as="geometry">
            <mxPoint x="200" y="480" as="sourcePoint" />
            <mxPoint x="600" y="410" as="targetPoint" />
          </mxGeometry>
        </mxCell>
        <mxCell id="B66K4Mg3-35a2zKml4Np-11" value="" style="endArrow=none;html=1;rounded=0;entryX=0;entryY=1;entryDx=0;entryDy=0;" edge="1" parent="1" target="vWQNxFRxiga3JergTZAy-12">
          <mxGeometry width="50" height="50" relative="1" as="geometry">
            <mxPoint x="200" y="480" as="sourcePoint" />
            <mxPoint x="600" y="530" as="targetPoint" />
          </mxGeometry>
        </mxCell>
        <mxCell id="B66K4Mg3-35a2zKml4Np-12" value="" style="endArrow=none;html=1;rounded=0;entryX=0;entryY=0.5;entryDx=0;entryDy=0;" edge="1" parent="1" target="vWQNxFRxiga3JergTZAy-14">
          <mxGeometry width="50" height="50" relative="1" as="geometry">
            <mxPoint x="200" y="480" as="sourcePoint" />
            <mxPoint x="600" y="530" as="targetPoint" />
          </mxGeometry>
        </mxCell>
        <mxCell id="B66K4Mg3-35a2zKml4Np-13" value="" style="endArrow=none;html=1;rounded=0;entryX=0;entryY=0.5;entryDx=0;entryDy=0;" edge="1" parent="1" target="vWQNxFRxiga3JergTZAy-15">
          <mxGeometry width="50" height="50" relative="1" as="geometry">
            <mxPoint x="200" y="480" as="sourcePoint" />
            <mxPoint x="600" y="530" as="targetPoint" />
          </mxGeometry>
        </mxCell>
      </root>
    </mxGraphModel>
  </diagram>
</mxfile>
